<svg width="24" height="27" viewBox="0 0 24 27" fill="none" xmlns="http://www.w3.org/2000/svg">
<path d="M6.76917 18.0769C7.34041 18.0769 7.88825 17.85 8.29217 17.4461C8.6961 17.0422 8.92302 16.4943 8.92302 15.9231V14.0769C8.92302 13.5057 9.14995 12.9579 9.55388 12.5539C9.9578 12.15 10.5056 11.9231 11.0769 11.9231C11.6481 11.9231 12.1959 11.6962 12.5999 11.2922C13.0038 10.8883 13.2307 10.3405 13.2307 9.76924V7.09408C12.8296 7.03214 12.4185 7 12 7C7.58172 7 4 10.5817 4 15C4 16.0903 4.21813 17.1297 4.61313 18.0769H6.76917Z" stroke="#513833" stroke-width="2" stroke-linecap="round" stroke-linejoin="round"/>
<path d="M19.9988 14.8765C19.3828 14.557 18.6997 14.3884 18.0057 14.3846H15.3842C14.813 14.3846 14.2651 14.6115 13.8612 15.0154C13.4573 15.4194 13.2303 15.9672 13.2303 16.5384C13.2303 17.1097 13.4573 17.6575 13.8612 18.0615C14.2651 18.4654 14.813 18.6923 15.3842 18.6923C15.7922 18.6923 16.1835 18.8544 16.4721 19.1429C16.7605 19.4314 16.9226 19.8227 16.9226 20.2308V21.3015H16.9288C18.7868 19.8462 19.9848 17.5871 19.9996 15.0476V14.9524C19.9995 14.9271 19.9992 14.9018 19.9988 14.8765Z" stroke="#513833" stroke-width="2" stroke-linecap="round" stroke-linejoin="round"/>
<path d="M12 23C16.4183 23 20 19.4182 20 15C20 10.5817 16.4183 7 12 7C7.58173 7 4 10.5817 4 15C4 19.4182 7.58173 23 12 23Z" stroke="#513833" stroke-width="2" stroke-linecap="round" stroke-linejoin="round"/>
</svg>
