<svg width="24" height="27" viewBox="0 0 24 27" fill="none" xmlns="http://www.w3.org/2000/svg">
<path d="M9.31844 16.2275C7.73103 16.3645 6.25824 16.9023 5.00174 17.7391C3.36653 18.8282 4.47071 20.9287 6.4354 20.9287H9.31844" stroke="#513833" stroke-width="2" stroke-linecap="round"/>
<path d="M12.4907 19.0765C12.4907 16.7781 13.1335 15.7932 13.4549 15.4648H19.24C19.5614 15.7932 20.2042 16.7781 20.2042 19.0765C20.2042 21.703 17.6719 22.6718 16.3863 23.0002C15.1007 22.6718 12.4907 21.703 12.4907 19.0765Z" stroke="#513833" stroke-width="2" stroke-linecap="round" stroke-linejoin="round"/>
<path d="M10.1267 13.6859C11.9729 13.6859 13.4696 12.1892 13.4696 10.343C13.4696 8.49669 11.9729 7 10.1267 7C8.28039 7 6.78369 8.49669 6.78369 10.343C6.78369 12.1892 8.28039 13.6859 10.1267 13.6859Z" stroke="#513833" stroke-width="2" stroke-linecap="round" stroke-linejoin="round"/>
</svg>
