<svg width="25" height="25" viewBox="0 0 25 25" fill="none" xmlns="http://www.w3.org/2000/svg">
<g clip-path="url(#clip0_1_758)">
<path d="M18.8181 10.4067C18.8181 6.81824 15.7655 3.90918 12 3.90918C8.23437 3.90918 5.18176 6.81824 5.18176 10.4067V10.7981C5.18176 12.2339 5.65253 13.6338 6.52826 14.8022L11.9865 22.0844C11.993 22.0932 12.0068 22.0932 12.0134 22.0844L17.4717 14.8022C18.3474 13.6338 18.8181 12.2339 18.8181 10.7981V10.4067Z" stroke="#513833" stroke-width="2" stroke-linecap="round" stroke-linejoin="round"/>
<path d="M10.6671 7.80842C11.5092 7.42193 12.4902 7.42193 13.3324 7.80842C14.1745 8.19492 14.7862 8.92584 14.9942 9.79428C15.2022 10.6627 14.9839 11.5741 14.4011 12.2706C13.8183 12.967 12.9345 13.3727 11.9998 13.3727C11.065 13.3727 10.1811 12.967 9.59835 12.2706C9.01556 11.5741 8.79726 10.6627 9.00526 9.79428C9.21325 8.92584 9.82491 8.19492 10.6671 7.80842Z" stroke="#513833" stroke-width="2" stroke-linecap="round" stroke-linejoin="round"/>
</g>
<defs>
<clipPath id="clip0_1_758">
<rect width="20" height="20" fill="white" transform="translate(2 3)"/>
</clipPath>
</defs>
</svg>
