<svg width="25" height="25" viewBox="0 0 25 25" fill="none" xmlns="http://www.w3.org/2000/svg">
<mask id="mask0_1_748" style="mask-type:luminance" maskUnits="userSpaceOnUse" x="2" y="3" width="20" height="20">
<path d="M22 3H2V23H22V3Z" fill="white"/>
</mask>
<g mask="url(#mask0_1_748)">
<path d="M19.5668 21.2221C19.2757 21.7958 18.6761 22.1521 18.0386 22.0823C17.7646 22.0523 17.4909 22.0156 17.2177 21.9722C13.657 21.406 10.3662 19.7227 7.81708 17.1635C5.2679 14.6042 3.59118 11.3005 3.02721 7.72583C2.98398 7.45175 2.94744 7.17716 2.91759 6.90229C2.84808 6.26231 3.20299 5.6603 3.77434 5.36803L6.27479 4.08896C7.24251 3.59395 8.41346 4.17138 8.75378 5.20684C8.96019 5.83487 9.20395 6.45287 9.48478 7.05746C9.62549 7.36042 9.77475 7.65838 9.93229 7.95105C10.3052 8.64394 10.0537 9.53266 9.33948 9.85856C8.30228 10.3319 8.05524 11.6995 8.86088 12.5083L12.454 16.1155C13.2596 16.9244 14.6219 16.6764 15.0934 15.6351C15.4358 14.8785 16.3643 14.6047 17.1015 14.9825C17.2802 15.0741 17.4608 15.1627 17.6433 15.2481C18.3345 15.5717 19.0433 15.8462 19.7646 16.0714C20.8148 16.3992 21.4109 17.5887 20.9116 18.5724L19.5668 21.2221Z" stroke="#513833" stroke-width="2" stroke-linecap="round" stroke-linejoin="round"/>
</g>
</svg>
