<svg width="21" height="27" viewBox="0 0 21 27" fill="none" xmlns="http://www.w3.org/2000/svg">
<path fill-rule="evenodd" clip-rule="evenodd" d="M10.4141 9.81174L10.6213 8.66473C5.41022 8.19239 3.26487 10.3814 1.8764 12.2433C0.48889 14.104 -0.246618 16.4787 0.0747978 18.7696C0.569015 22.2922 3.26672 25.1778 6.67024 26.1993C11.5932 27.6767 17.3259 24.9462 18.764 19.9978L17.6253 19.6776C17.5073 20.0836 17.318 20.5059 17.0969 20.9207C16.7774 20.491 16.5938 19.9748 16.4047 19.4815L16.4039 19.4794C16.1999 18.9475 16.0033 18.3918 15.6394 17.9424C14.6105 16.6719 12.929 17.5482 11.9704 18.4156L11.9689 18.4169C11.5392 18.8058 11.1983 19.1142 10.6591 19.2825C9.74921 19.5664 8.8669 18.8865 7.9445 19.0242C6.28893 19.2713 5.92606 21.4406 5.95553 22.7681C5.97028 23.4323 6.0598 24.143 6.14111 24.7687C3.93111 23.8285 2.18757 21.9746 1.49834 19.734C2.05461 19.9161 2.70816 20.0038 3.23752 19.6978C4.256 19.1089 4.38021 17.9066 5.15603 17.1339C6.00394 16.2895 7.62177 17.3547 8.53275 16.1388C9.06566 15.4275 9.07877 14.7261 9.08777 14.2451C9.09191 14.0234 9.08249 13.7839 9.17251 13.5768C9.2175 13.4734 9.3061 13.3459 9.54479 13.2025C10.0596 12.893 10.3004 12.4237 10.3058 11.9116C10.3107 11.4449 10.1218 10.986 9.89491 10.6024C9.72003 10.3066 9.49904 10.0168 9.26114 9.75415C9.66185 9.73654 10.0449 9.7472 10.4141 9.81174ZM7.3891 25.188C10.7858 26.0447 14.4786 24.7986 16.4592 21.9745C16.1838 21.7058 15.9755 21.3905 15.8091 21.0784C15.4829 20.4668 15.1124 18.3874 14.2722 18.4552C12.9902 18.5584 12.232 20.0139 11.0171 20.3929C9.95803 20.7234 9.10321 20.0295 8.12217 20.176C7.17684 20.3171 7.12503 22.0898 7.13953 22.7427C7.15827 23.5869 7.29468 24.3964 7.3891 25.188ZM1.21581 18.3398C1.5455 18.5209 2.25999 18.9117 2.63743 18.6934C3.46567 18.2146 3.65018 16.9758 4.31349 16.3152C4.84037 15.7905 5.57616 15.7667 6.27671 15.788L6.27831 15.788C6.72973 15.8017 7.27948 15.848 7.57941 15.4476C7.88116 15.0449 7.89041 14.6953 7.90329 14.2089C7.91311 13.8379 7.93309 13.465 8.08366 13.1187C8.23923 12.7609 8.51088 12.4587 8.92725 12.2084C9.08508 12.1135 9.1203 12.0202 9.12157 11.8996C9.12331 11.7336 9.04945 11.4895 8.87124 11.1882C8.56053 10.6627 8.05323 10.1617 7.68475 9.9045C5.74196 10.1818 4.02078 11.3373 2.8313 12.9324C1.65626 14.5082 1.0333 16.4697 1.21581 18.3398Z" fill="white"/>
<path fill-rule="evenodd" clip-rule="evenodd" d="M16.2319 0.799805H16.8241C17.5592 0.799805 18.2719 0.958874 18.8643 1.34136C19.4666 1.73019 19.902 2.32317 20.1113 3.10642C20.8669 5.93399 20.0219 8.46556 18.9299 10.8682V18.6722L16.2319 17.8651V0.799805ZM17.4162 2.01492V17.0017L17.7456 17.1003V10.6181L17.798 10.5039C18.8942 8.11266 19.6241 5.86528 18.9659 3.40262C18.826 2.87901 18.5562 2.53589 18.2145 2.31532C17.9936 2.1727 17.7259 2.07088 17.4162 2.01492ZM12.1715 6.5902L12.1717 1.04301L13.356 1.04305L13.3558 6.6106C13.7674 6.54539 14.0076 6.40083 14.1572 6.24462C14.3807 6.01132 14.5121 5.63944 14.547 5.08497C14.5817 4.53362 14.5164 3.89553 14.4336 3.20559C14.425 3.1343 14.4163 3.06234 14.4074 2.98989L14.4067 2.98413L14.4066 2.9828C14.3331 2.37981 14.2555 1.74269 14.2555 1.17091H15.4398C15.4398 1.66813 15.5081 2.23125 15.5829 2.84744C15.5918 2.92055 15.6008 2.9944 15.6097 3.06897C15.6913 3.74879 15.7712 4.48625 15.729 5.15692C15.687 5.82448 15.5196 6.52111 15.0192 7.04353C14.6146 7.46597 14.0569 7.70895 13.3556 7.78547L13.3527 16.8032L12.1685 16.8029L12.1713 7.76972C11.4692 7.67656 10.9138 7.42824 10.511 7.01065C10.0117 6.49307 9.84199 5.8119 9.79922 5.15379C9.75646 4.49582 9.83615 3.77122 9.9172 3.09679C9.92489 3.0328 9.93259 2.96923 9.94024 2.9061C10.0159 2.28182 10.0864 1.70023 10.0864 1.17092L11.2707 1.1709C11.2707 1.77406 11.1913 2.42676 11.1171 3.03669L11.117 3.03779C11.109 3.10358 11.1011 3.16887 11.0933 3.23355C11.0107 3.92053 10.9462 4.54308 10.9811 5.07946C11.0159 5.6157 11.1456 5.9761 11.3701 6.20876C11.522 6.36622 11.764 6.51291 12.1715 6.5902Z" fill="white"/>
</svg>
