<svg width="146" height="9" viewBox="0 0 146 9" fill="none" xmlns="http://www.w3.org/2000/svg">
<path d="M0.252017 7.15449C0.175648 7.15449 0.114552 7.13506 0.0687306 7.0962C0.0229093 7.05735 0 7.00556 0 6.9408V0.578792C0 0.507564 0.0229093 0.452525 0.0687306 0.413673C0.114552 0.374821 0.175648 0.355396 0.252017 0.355396H4.44466C4.52867 0.355396 4.59359 0.374821 4.63941 0.413673C4.68523 0.452525 4.70814 0.507564 4.70814 0.578792V0.724487C4.70814 0.789241 4.68523 0.841044 4.63941 0.879896C4.59359 0.918748 4.52867 0.938173 4.44466 0.938173H0.72169V6.9408C0.72169 7.00556 0.698773 7.05735 0.652952 7.0962C0.607131 7.13506 0.542222 7.15449 0.458216 7.15449H0.252017Z" fill="white"/>
<path d="M7.92576 7.25166C7.55919 7.25166 7.21936 7.18691 6.90625 7.0574C6.60077 6.9279 6.35257 6.7563 6.16164 6.54261C5.97072 6.32245 5.87527 6.07639 5.87527 5.80443C5.87527 5.36411 6.08528 5.0112 6.5053 4.74571C6.92533 4.48022 7.47137 4.30863 8.14342 4.23093L9.95336 4.01724V3.67728C9.95336 3.33409 9.82735 3.06537 9.57533 2.87111C9.33095 2.67037 8.93766 2.57 8.39544 2.57C7.99832 2.57 7.67757 2.63799 7.43319 2.77398C7.18881 2.90348 7.02079 3.07508 6.92915 3.28876C6.89097 3.38589 6.81842 3.43446 6.7115 3.43446H6.52822C6.43657 3.43446 6.37166 3.41503 6.33347 3.37618C6.29529 3.33086 6.2762 3.27905 6.2762 3.22077C6.2762 3.13012 6.31439 3.0168 6.39076 2.88081C6.47476 2.74483 6.60077 2.61209 6.76878 2.48259C6.93679 2.3466 7.15444 2.23329 7.42173 2.14263C7.68902 2.05198 8.01359 2.00665 8.39544 2.00665C8.84601 2.00665 9.2164 2.05845 9.50661 2.16206C9.80444 2.26567 10.0336 2.40164 10.1939 2.57C10.3619 2.73189 10.4803 2.91319 10.549 3.11393C10.6178 3.31466 10.6521 3.51216 10.6521 3.70642V6.94085C10.6521 7.0056 10.6292 7.0574 10.5834 7.09625C10.5376 7.1351 10.4765 7.15453 10.4001 7.15453H10.2054C10.129 7.15453 10.0679 7.1351 10.0221 7.09625C9.97627 7.0574 9.95336 7.0056 9.95336 6.94085V6.48434C9.86172 6.60089 9.73189 6.71745 9.56388 6.834C9.39587 6.95056 9.17822 7.05093 8.91093 7.13511C8.65127 7.21281 8.32288 7.25166 7.92576 7.25166ZM8.04032 6.68831C8.39162 6.68831 8.71237 6.62356 9.00257 6.49405C9.29277 6.36454 9.52188 6.16704 9.68989 5.90156C9.86554 5.62959 9.95336 5.28964 9.95336 4.88169V4.55145L8.47562 4.72629C7.8494 4.79752 7.37591 4.92054 7.05516 5.09538C6.73441 5.27021 6.57404 5.49037 6.57404 5.75586C6.57404 5.96955 6.64659 6.14438 6.79169 6.28036C6.93679 6.41635 7.12007 6.51995 7.34154 6.59118C7.57065 6.65593 7.80358 6.68831 8.04032 6.68831Z" fill="white"/>
<path d="M15.4082 7.25166C14.8736 7.25166 14.4192 7.16425 14.045 6.98941C13.6708 6.8081 13.3844 6.54909 13.1858 6.21237C12.9949 5.87566 12.8918 5.47743 12.8765 5.01768C12.8689 4.92055 12.8651 4.79104 12.8651 4.62916C12.8651 4.46727 12.8689 4.33776 12.8765 4.24063C12.8918 3.77441 12.9949 3.37618 13.1858 3.04594C13.3844 2.70922 13.6708 2.45345 14.045 2.27861C14.4192 2.0973 14.8736 2.00665 15.4082 2.00665C15.8129 2.00665 16.1604 2.05522 16.4506 2.15235C16.7484 2.243 16.9928 2.36603 17.1837 2.52143C17.3747 2.67037 17.5198 2.83549 17.619 3.0168C17.7183 3.19811 17.7718 3.37618 17.7794 3.55101C17.787 3.61577 17.7641 3.66757 17.7107 3.70642C17.6572 3.74527 17.5961 3.7647 17.5274 3.7647H17.367C17.2906 3.7647 17.2334 3.75175 17.1952 3.72585C17.1646 3.69347 17.1303 3.63843 17.0921 3.56073C16.9317 3.19163 16.7102 2.93586 16.4277 2.7934C16.1528 2.64447 15.8129 2.57 15.4082 2.57C14.8888 2.57 14.4574 2.70598 14.1137 2.97795C13.7777 3.24344 13.5982 3.68052 13.5753 4.2892C13.56 4.51584 13.56 4.74247 13.5753 4.96911C13.5982 5.57779 13.7777 6.01811 14.1137 6.29008C14.4574 6.55557 14.8888 6.68831 15.4082 6.68831C15.8129 6.68831 16.1528 6.61708 16.4277 6.47462C16.7102 6.32569 16.9317 6.06668 17.0921 5.69758C17.1303 5.61988 17.1646 5.56808 17.1952 5.54217C17.2334 5.5098 17.2906 5.49361 17.367 5.49361H17.5274C17.5961 5.49361 17.6572 5.51304 17.7107 5.55189C17.7641 5.59074 17.787 5.64254 17.7794 5.7073C17.7718 5.84975 17.7374 5.99221 17.6763 6.13467C17.6152 6.27713 17.5198 6.41634 17.3899 6.55233C17.2677 6.68831 17.115 6.8081 16.9317 6.91171C16.7484 7.01531 16.527 7.09626 16.2673 7.15453C16.0153 7.21929 15.7289 7.25166 15.4082 7.25166Z" fill="white"/>
<path d="M21.8011 7.1545C21.7247 7.1545 21.6636 7.13506 21.6178 7.09621C21.572 7.05736 21.5491 7.00556 21.5491 6.94081V2.66709H19.4528C19.3764 2.66709 19.3153 2.64767 19.2695 2.60881C19.2237 2.56996 19.2008 2.51816 19.2008 2.45341V2.31742C19.2008 2.25267 19.2237 2.20087 19.2695 2.16202C19.3153 2.12317 19.3764 2.10374 19.4528 2.10374H24.3442C24.4206 2.10374 24.4817 2.12317 24.5275 2.16202C24.5733 2.20087 24.5962 2.25267 24.5962 2.31742V2.45341C24.5962 2.51816 24.5733 2.56996 24.5275 2.60881C24.4817 2.64767 24.4206 2.66709 24.3442 2.66709H22.2479V6.94081C22.2479 7.00556 22.225 7.05736 22.1791 7.09621C22.1333 7.13506 22.0722 7.1545 21.9959 7.1545H21.8011Z" fill="white"/>
<path d="M26.6255 9C26.5492 9 26.4881 8.98057 26.4423 8.94172C26.3964 8.90287 26.3735 8.85107 26.3735 8.78631V2.31746C26.3735 2.25271 26.3964 2.20091 26.4423 2.16206C26.4881 2.12321 26.5492 2.10378 26.6255 2.10378H26.8203C26.8967 2.10378 26.9577 2.12321 27.0036 2.16206C27.0494 2.20091 27.0723 2.25271 27.0723 2.31746V2.77398C27.2632 2.55381 27.5114 2.37251 27.8169 2.23005C28.13 2.08112 28.5233 2.00665 28.9968 2.00665C29.4474 2.00665 29.8254 2.07464 30.1309 2.21062C30.4364 2.34013 30.6845 2.51496 30.8755 2.73512C31.0664 2.95528 31.2077 3.20135 31.2993 3.47331C31.391 3.74527 31.4406 4.02371 31.4482 4.30862C31.4559 4.40575 31.4597 4.5126 31.4597 4.62916C31.4597 4.74571 31.4559 4.85255 31.4482 4.94968C31.4406 5.23459 31.391 5.51304 31.2993 5.785C31.2077 6.05696 31.0664 6.30302 30.8755 6.52318C30.6845 6.74335 30.4364 6.92142 30.1309 7.0574C29.8254 7.18691 29.4474 7.25166 28.9968 7.25166C28.5233 7.25166 28.13 7.17719 27.8169 7.02826C27.5114 6.87933 27.2632 6.69802 27.0723 6.48434V8.78631C27.0723 8.85107 27.0494 8.90287 27.0036 8.94172C26.9577 8.98057 26.8967 9 26.8203 9H26.6255ZM28.9281 6.68831C29.3786 6.68831 29.7338 6.60413 29.9934 6.43577C30.2531 6.26741 30.4402 6.04725 30.5547 5.77529C30.6693 5.50332 30.7342 5.21193 30.7495 4.90112C30.7571 4.71981 30.7571 4.5385 30.7495 4.35719C30.7342 4.04638 30.6693 3.75499 30.5547 3.48302C30.4402 3.21106 30.2531 2.9909 29.9934 2.82254C29.7338 2.65418 29.3786 2.57 28.9281 2.57C28.4928 2.57 28.1415 2.65742 27.8742 2.83225C27.6069 3.00709 27.4083 3.22725 27.2785 3.49274C27.1563 3.75175 27.0876 4.014 27.0723 4.27949C27.0647 4.37662 27.0609 4.50289 27.0609 4.6583C27.0609 4.8137 27.0647 4.93997 27.0723 5.0371C27.0799 5.29611 27.1487 5.55189 27.2785 5.80443C27.416 6.05697 27.6183 6.26741 27.8856 6.43577C28.1606 6.60413 28.508 6.68831 28.9281 6.68831Z" fill="white"/>
<path d="M35.9741 7.25166C35.4242 7.25166 34.9622 7.15453 34.588 6.96027C34.2214 6.76601 33.9389 6.50052 33.7403 6.1638C33.5494 5.82709 33.4463 5.45152 33.431 5.0371C33.4234 4.93997 33.4195 4.80399 33.4195 4.62916C33.4195 4.45432 33.4234 4.31834 33.431 4.22121C33.4463 3.80032 33.5494 3.42474 33.7403 3.0945C33.9389 2.75778 34.2214 2.4923 34.588 2.29804C34.9622 2.10378 35.4242 2.00665 35.9741 2.00665C36.5239 2.00665 36.9822 2.10378 37.3487 2.29804C37.7229 2.4923 38.0055 2.75778 38.1964 3.0945C38.395 3.42474 38.5019 3.80032 38.5172 4.22121C38.5248 4.31834 38.5286 4.45432 38.5286 4.62916C38.5286 4.80399 38.5248 4.93997 38.5172 5.0371C38.5019 5.45152 38.395 5.82709 38.1964 6.1638C38.0055 6.50052 37.7229 6.76601 37.3487 6.96027C36.9822 7.15453 36.5239 7.25166 35.9741 7.25166ZM35.9741 6.68831C36.5087 6.68831 36.944 6.54261 37.28 6.25122C37.616 5.95983 37.7955 5.53894 37.8184 4.98854C37.826 4.89141 37.8299 4.77161 37.8299 4.62916C37.8299 4.4867 37.826 4.3669 37.8184 4.26977C37.7955 3.7129 37.616 3.292 37.28 3.00709C36.944 2.7157 36.5087 2.57 35.9741 2.57C35.4395 2.57 35.0042 2.7157 34.6682 3.00709C34.3321 3.292 34.1527 3.7129 34.1298 4.26977C34.1221 4.3669 34.1183 4.4867 34.1183 4.62916C34.1183 4.77161 34.1221 4.89141 34.1298 4.98854C34.1527 5.53894 34.3321 5.95983 34.6682 6.25122C35.0042 6.54261 35.4395 6.68831 35.9741 6.68831Z" fill="white"/>
<path d="M42.6007 7.1545C42.5244 7.1545 42.4633 7.13506 42.4174 7.09621C42.3716 7.05736 42.3487 7.00556 42.3487 6.94081V2.66709H40.2524C40.176 2.66709 40.1149 2.64767 40.0691 2.60881C40.0233 2.56996 40.0004 2.51816 40.0004 2.45341V2.31742C40.0004 2.25267 40.0233 2.20087 40.0691 2.16202C40.1149 2.12317 40.176 2.10374 40.2524 2.10374H45.1438C45.2202 2.10374 45.2813 2.12317 45.3271 2.16202C45.3729 2.20087 45.3958 2.25267 45.3958 2.31742V2.45341C45.3958 2.51816 45.3729 2.56996 45.3271 2.60881C45.2813 2.64767 45.2202 2.66709 45.1438 2.66709H43.0475V6.94081C43.0475 7.00556 43.0246 7.05736 42.9788 7.09621C42.9329 7.13506 42.8718 7.1545 42.7955 7.1545H42.6007Z" fill="white"/>
<path d="M47.2982 8.99996C47.2219 8.99996 47.1608 8.98054 47.1149 8.94168C47.0691 8.90283 47.0462 8.85103 47.0462 8.78628V8.65029C47.0462 8.58554 47.0691 8.53374 47.1149 8.49489C47.1608 8.45603 47.2219 8.43661 47.2982 8.43661H47.5617C47.745 8.43661 47.8939 8.40423 48.0085 8.33948C48.123 8.27472 48.2261 8.16465 48.3178 8.00924C48.417 7.85383 48.5354 7.64014 48.6729 7.36818L51.2389 2.24943C51.2618 2.20411 51.2923 2.1685 51.3305 2.14259C51.3687 2.11669 51.426 2.10374 51.5023 2.10374H51.7085C51.7696 2.10374 51.8231 2.12317 51.8689 2.16202C51.9147 2.20087 51.9376 2.2462 51.9376 2.298C51.9376 2.3239 51.93 2.34981 51.9147 2.37571C51.9071 2.40161 51.8918 2.44046 51.8689 2.49226L49.6924 6.82425C49.5931 7.02499 49.4824 7.24839 49.3602 7.49445C49.238 7.74699 49.1005 7.98657 48.9478 8.21321C48.795 8.44632 48.6156 8.6341 48.4094 8.77656C48.2032 8.92549 47.9626 8.99996 47.6877 8.99996H47.2982ZM48.9224 6.87039L46.7026 2.49226C46.6567 2.39513 46.6338 2.33038 46.6338 2.298C46.6338 2.2462 46.6567 2.20087 46.7026 2.16202C46.7484 2.12317 46.8018 2.10374 46.8629 2.10374H47.0806C47.1569 2.10374 47.2142 2.11993 47.2524 2.15231C47.2906 2.17821 47.3211 2.21058 47.344 2.24943L49.2947 6.1275L48.9224 6.87039Z" fill="white"/>
<path d="M54.177 9C54.1006 9 54.0395 8.98057 53.9937 8.94172C53.9479 8.90287 53.925 8.85107 53.925 8.78631V2.31746C53.925 2.25271 53.9479 2.20091 53.9937 2.16206C54.0395 2.12321 54.1006 2.10378 54.177 2.10378H54.3717C54.4481 2.10378 54.5092 2.12321 54.555 2.16206C54.6008 2.20091 54.6237 2.25271 54.6237 2.31746V2.77398C54.8147 2.55381 55.0629 2.37251 55.3683 2.23005C55.6816 2.08112 56.0748 2.00665 56.5482 2.00665C56.9988 2.00665 57.3768 2.07464 57.6823 2.21062C57.9878 2.34013 58.236 2.51496 58.4269 2.73512C58.6178 2.95528 58.7591 3.20135 58.8508 3.47331C58.9424 3.74527 58.992 4.02371 58.9997 4.30862C59.0075 4.40575 59.0111 4.5126 59.0111 4.62916C59.0111 4.74571 59.0075 4.85255 58.9997 4.94968C58.992 5.23459 58.9424 5.51304 58.8508 5.785C58.7591 6.05696 58.6178 6.30302 58.4269 6.52318C58.236 6.74335 57.9878 6.92142 57.6823 7.0574C57.3768 7.18691 56.9988 7.25166 56.5482 7.25166C56.0748 7.25166 55.6816 7.17719 55.3683 7.02826C55.0629 6.87933 54.8147 6.69802 54.6237 6.48434V8.78631C54.6237 8.85107 54.6008 8.90287 54.555 8.94172C54.5092 8.98057 54.4481 9 54.3717 9H54.177ZM56.4795 6.68831C56.9301 6.68831 57.2852 6.60413 57.5448 6.43577C57.8047 6.26741 57.9916 6.04725 58.1062 5.77529C58.2207 5.50332 58.2856 5.21193 58.3009 4.90112C58.3087 4.71981 58.3087 4.5385 58.3009 4.35719C58.2856 4.04638 58.2207 3.75499 58.1062 3.48302C57.9916 3.21106 57.8047 2.9909 57.5448 2.82254C57.2852 2.65418 56.9301 2.57 56.4795 2.57C56.0442 2.57 55.6929 2.65742 55.4256 2.83225C55.1583 3.00709 54.9598 3.22725 54.8299 3.49274C54.7078 3.75175 54.639 4.014 54.6237 4.27949C54.6161 4.37662 54.6123 4.50289 54.6123 4.6583C54.6123 4.8137 54.6161 4.93997 54.6237 5.0371C54.6314 5.29611 54.7001 5.55189 54.8299 5.80443C54.9674 6.05697 55.1698 6.26741 55.4371 6.43577C55.712 6.60413 56.0595 6.68831 56.4795 6.68831Z" fill="white"/>
<path d="M61.5076 7.1545C61.4313 7.1545 61.3702 7.13506 61.3243 7.09621C61.2785 7.05736 61.2556 7.00556 61.2556 6.94081V2.31742C61.2556 2.25267 61.2785 2.20087 61.3243 2.16202C61.3702 2.12317 61.4313 2.10374 61.5076 2.10374H61.7024C61.7787 2.10374 61.8398 2.12317 61.8857 2.16202C61.9315 2.20087 61.9544 2.25267 61.9544 2.31742V3.7938H63.2145C63.9934 3.7938 64.5471 3.94921 64.8755 4.26002C65.2115 4.57084 65.3795 4.9885 65.3795 5.513C65.3795 6.08283 65.1886 6.50049 64.8068 6.76597C64.4325 7.02499 63.8445 7.1545 63.0426 7.1545H61.5076ZM61.9544 6.59114H63.1457C63.6803 6.59114 64.0698 6.51344 64.3142 6.35803C64.5586 6.19615 64.6808 5.91447 64.6808 5.513C64.6808 5.12448 64.5624 4.83633 64.3256 4.64854C64.0889 4.45429 63.6956 4.35715 63.1457 4.35715H61.9544V6.59114ZM66.5021 7.1545C66.4258 7.1545 66.3647 7.13506 66.3189 7.09621C66.273 7.05736 66.2501 7.00556 66.2501 6.94081V2.31742C66.2501 2.25267 66.273 2.20087 66.3189 2.16202C66.3647 2.12317 66.4258 2.10374 66.5021 2.10374H66.6969C66.7733 2.10374 66.8344 2.12317 66.8802 2.16202C66.926 2.20087 66.9489 2.25267 66.9489 2.31742V6.94081C66.9489 7.00556 66.926 7.05736 66.8802 7.09621C66.8344 7.13506 66.7733 7.1545 66.6969 7.1545H66.5021Z" fill="white"/>
<path d="M75.3925 7.25166C74.858 7.25166 74.4036 7.16425 74.0294 6.98941C73.6552 6.8081 73.3688 6.54909 73.1702 6.21237C72.9793 5.87566 72.8762 5.47743 72.8609 5.01768C72.8533 4.92055 72.8495 4.79104 72.8495 4.62916C72.8495 4.46727 72.8533 4.33776 72.8609 4.24063C72.8762 3.77441 72.9793 3.37618 73.1702 3.04594C73.3688 2.70922 73.6552 2.45345 74.0294 2.27861C74.4036 2.0973 74.858 2.00665 75.3925 2.00665C75.7973 2.00665 76.1448 2.05522 76.435 2.15235C76.7328 2.243 76.9772 2.36603 77.1681 2.52143C77.3591 2.67037 77.5042 2.83549 77.6034 3.0168C77.7027 3.19811 77.7562 3.37618 77.7638 3.55101C77.7715 3.61577 77.7485 3.66757 77.6951 3.70642C77.6416 3.74527 77.5805 3.7647 77.5118 3.7647H77.3514C77.275 3.7647 77.2178 3.75175 77.1796 3.72585C77.149 3.69347 77.1147 3.63843 77.0765 3.56073C76.9161 3.19163 76.6947 2.93586 76.4121 2.7934C76.1372 2.64447 75.7973 2.57 75.3925 2.57C74.8732 2.57 74.4418 2.70598 74.0981 2.97795C73.7621 3.24344 73.5826 3.68052 73.5597 4.2892C73.5444 4.51584 73.5444 4.74247 73.5597 4.96911C73.5826 5.57779 73.7621 6.01811 74.0981 6.29008C74.4418 6.55557 74.8732 6.68831 75.3925 6.68831C75.7973 6.68831 76.1372 6.61708 76.4121 6.47462C76.6947 6.32569 76.9161 6.06668 77.0765 5.69758C77.1147 5.61988 77.149 5.56808 77.1796 5.54217C77.2178 5.5098 77.275 5.49361 77.3514 5.49361H77.5118C77.5805 5.49361 77.6416 5.51304 77.6951 5.55189C77.7485 5.59074 77.7715 5.64254 77.7638 5.7073C77.7562 5.84975 77.7218 5.99221 77.6607 6.13467C77.5996 6.27713 77.5042 6.41634 77.3743 6.55233C77.2521 6.68831 77.0994 6.8081 76.9161 6.91171C76.7328 7.01531 76.5114 7.09626 76.2517 7.15453C75.9997 7.21929 75.7133 7.25166 75.3925 7.25166Z" fill="white"/>
<path d="M85.8726 7.25166C85.3227 7.25166 84.8607 7.15453 84.4865 6.96027C84.1199 6.76601 83.8374 6.50052 83.6388 6.1638C83.4479 5.82709 83.3448 5.45152 83.3295 5.0371C83.3219 4.93997 83.3181 4.80399 83.3181 4.62916C83.3181 4.45432 83.3219 4.31834 83.3295 4.22121C83.3448 3.80032 83.4479 3.42474 83.6388 3.0945C83.8374 2.75778 84.1199 2.4923 84.4865 2.29804C84.8607 2.10378 85.3227 2.00665 85.8726 2.00665C86.4224 2.00665 86.8807 2.10378 87.2472 2.29804C87.6214 2.4923 87.904 2.75778 88.0949 3.0945C88.2935 3.42474 88.4004 3.80032 88.4157 4.22121C88.4233 4.31834 88.4271 4.45432 88.4271 4.62916C88.4271 4.80399 88.4233 4.93997 88.4157 5.0371C88.4004 5.45152 88.2935 5.82709 88.0949 6.1638C87.904 6.50052 87.6214 6.76601 87.2472 6.96027C86.8807 7.15453 86.4224 7.25166 85.8726 7.25166ZM85.8726 6.68831C86.4072 6.68831 86.8425 6.54261 87.1785 6.25122C87.5145 5.95983 87.694 5.53894 87.7169 4.98854C87.7245 4.89141 87.7283 4.77161 87.7283 4.62916C87.7283 4.4867 87.7245 4.3669 87.7169 4.26977C87.694 3.7129 87.5145 3.292 87.1785 3.00709C86.8425 2.7157 86.4072 2.57 85.8726 2.57C85.338 2.57 84.9027 2.7157 84.5667 3.00709C84.2307 3.292 84.0512 3.7129 84.0283 4.26977C84.0207 4.3669 84.0168 4.4867 84.0168 4.62916C84.0168 4.77161 84.0207 4.89141 84.0283 4.98854C84.0512 5.53894 84.2307 5.95983 84.5667 6.25122C84.9027 6.54261 85.338 6.68831 85.8726 6.68831Z" fill="white"/>
<path d="M93.0508 7.25144C92.5009 7.25144 92.0389 7.15431 91.6647 6.96005C91.2905 6.76579 91.0041 6.5003 90.8055 6.16358C90.6146 5.82686 90.5115 5.4513 90.4962 5.03688C90.4962 4.84262 90.4962 4.65159 90.4962 4.46381C90.4962 4.26955 90.4962 4.07529 90.4962 3.88103C90.4962 3.27235 90.5497 2.77052 90.6566 2.37552C90.7712 1.97405 90.9392 1.65028 91.1606 1.40422C91.3897 1.15168 91.6761 0.94771 92.0198 0.792302C92.3711 0.636894 92.7797 0.500914 93.2455 0.384358C93.7114 0.267802 94.2421 0.141532 94.8378 0.00554978C94.8989 -0.00740087 94.96 0.00231464 95.0211 0.0346913C95.0822 0.0605926 95.1165 0.0994422 95.1242 0.151245L95.17 0.335792C95.1853 0.39407 95.1776 0.445874 95.1471 0.491201C95.1165 0.530053 95.0707 0.555955 95.0096 0.568905C94.4445 0.698412 93.9443 0.811729 93.509 0.908858C93.0737 1.00599 92.7033 1.11607 92.3978 1.2391C92.0923 1.36213 91.8441 1.52401 91.6532 1.72475C91.4699 1.91901 91.2714 2.16507 91.195 2.50179C91.1186 2.83203 90.9848 3.01949 91.0154 3.53751L90.9659 3.79362C90.9888 3.51518 91.1034 3.26588 91.3096 3.04571C91.5234 2.81908 91.7945 2.63777 92.1229 2.50179C92.4513 2.36581 92.7987 2.29782 93.1653 2.29782C93.677 2.29782 94.1085 2.39495 94.4598 2.58921C94.8187 2.78347 95.0936 3.04895 95.2846 3.38567C95.4755 3.71591 95.5786 4.09148 95.5939 4.51238C95.6091 4.72607 95.6091 4.90089 95.5939 5.03688C95.5786 5.4513 95.4717 5.82686 95.2731 6.16358C95.0822 6.5003 94.7996 6.76579 94.4254 6.96005C94.0588 7.15431 93.6006 7.25144 93.0508 7.25144ZM93.0508 6.68809C93.5854 6.68809 94.0206 6.54239 94.3567 6.251C94.6927 5.95961 94.8722 5.53872 94.8951 4.98831C94.9027 4.93004 94.9065 4.86852 94.9065 4.80377C94.9065 4.73902 94.9027 4.65807 94.8951 4.56094C94.8722 4.00406 94.6965 3.58317 94.3681 3.29826C94.0397 3.00687 93.6388 2.86117 93.1653 2.86117C92.6307 2.86117 92.1763 3.00687 91.8021 3.29826C91.4279 3.58317 91.2294 4.00406 91.2065 4.56094C91.1988 4.65807 91.195 4.73902 91.195 4.80377C91.195 4.86852 91.1988 4.93004 91.2065 4.98831C91.2294 5.53872 91.4088 5.95961 91.7449 6.251C92.0809 6.54239 92.5162 6.68809 93.0508 6.68809Z" fill="white"/>
<path d="M98.0033 8.99996C97.927 8.99996 97.8659 8.98054 97.8201 8.94168C97.7742 8.90283 97.7513 8.85103 97.7513 8.78628V8.65029C97.7513 8.58554 97.7742 8.53374 97.8201 8.49489C97.8659 8.45603 97.927 8.43661 98.0033 8.43661H98.2668C98.4501 8.43661 98.599 8.40423 98.7136 8.33948C98.8281 8.27472 98.9312 8.16465 99.0229 8.00924C99.1221 7.85383 99.2405 7.64014 99.378 7.36818L101.943 2.24943C101.968 2.20411 101.996 2.1685 102.037 2.14259C102.075 2.11669 102.13 2.10374 102.208 2.10374H102.415C102.476 2.10374 102.529 2.12317 102.575 2.16202C102.619 2.20087 102.644 2.2462 102.644 2.298C102.644 2.3239 102.634 2.34981 102.619 2.37571C102.611 2.40161 102.598 2.44046 102.575 2.49226L100.398 6.82425C100.298 7.02499 100.188 7.24839 100.065 7.49445C99.9431 7.74699 99.8056 7.98657 99.6529 8.21321C99.5002 8.44632 99.3207 8.6341 99.1145 8.77656C98.9083 8.92549 98.6678 8.99996 98.3928 8.99996H98.0033ZM99.6506 6.82425L97.4077 2.49226C97.3618 2.39513 97.3389 2.33038 97.3389 2.298C97.3389 2.2462 97.3618 2.20087 97.4077 2.16202C97.4535 2.12317 97.507 2.10374 97.568 2.10374H97.7857C97.8621 2.10374 97.9193 2.11993 97.9575 2.15231C97.9957 2.17821 98.0263 2.21058 98.0492 2.24943L99.9985 6.13042L99.6506 6.82425Z" fill="white"/>
<path d="M108.351 7.1545C108.274 7.1545 108.213 7.13506 108.167 7.09621C108.122 7.05736 108.099 7.00556 108.099 6.94081V4.95936C107.885 5.14067 107.625 5.27341 107.32 5.35759C107.014 5.4353 106.663 5.47415 106.266 5.47415C105.617 5.47415 105.109 5.36083 104.742 5.13419C104.383 4.90756 104.204 4.53846 104.204 4.02691V2.31742C104.204 2.25267 104.227 2.20087 104.273 2.16202C104.318 2.12317 104.379 2.10374 104.456 2.10374H104.651C104.727 2.10374 104.788 2.12317 104.834 2.16202C104.88 2.20087 104.903 2.25267 104.903 2.31742V3.97835C104.903 4.29564 105.017 4.53199 105.246 4.68739C105.483 4.83633 105.838 4.91079 106.312 4.91079C106.854 4.91079 107.285 4.85575 107.606 4.74567C107.934 4.63559 108.099 4.43162 108.099 4.13376V2.31742C108.099 2.25267 108.122 2.20087 108.167 2.16202C108.213 2.12317 108.274 2.10374 108.351 2.10374H108.545C108.622 2.10374 108.683 2.12317 108.729 2.16202C108.774 2.20087 108.797 2.25267 108.797 2.31742V6.94081C108.797 7.00556 108.774 7.05736 108.729 7.09621C108.683 7.13506 108.622 7.1545 108.545 7.1545H108.351Z" fill="white"/>
<path d="M113.555 7.25166C112.815 7.25166 112.226 7.04769 111.791 6.63974C111.356 6.22532 111.108 5.68464 111.047 5.01768C111.039 4.92055 111.035 4.79104 111.035 4.62916C111.035 4.46727 111.039 4.33776 111.047 4.24063C111.085 3.80031 111.207 3.4118 111.413 3.07508C111.619 2.73836 111.902 2.47611 112.261 2.28833C112.627 2.10054 113.059 2.00665 113.555 2.00665C114.09 2.00665 114.544 2.10701 114.918 2.30775C115.293 2.50848 115.579 2.79664 115.778 3.1722C115.984 3.54777 116.087 3.99458 116.087 4.5126V4.6583C116.087 4.72305 116.06 4.77485 116.007 4.8137C115.961 4.85255 115.9 4.87198 115.823 4.87198H111.745C111.745 4.87198 111.745 4.88493 111.745 4.91083C111.745 4.93673 111.745 4.95616 111.745 4.96911C111.761 5.2605 111.841 5.53894 111.986 5.80443C112.131 6.06344 112.337 6.27713 112.605 6.44549C112.872 6.60737 113.189 6.68831 113.555 6.68831C113.884 6.68831 114.155 6.64622 114.369 6.56204C114.59 6.47786 114.766 6.38721 114.896 6.29008C115.025 6.18647 115.109 6.10877 115.148 6.05696C115.216 5.97278 115.27 5.92422 115.308 5.91127C115.346 5.89184 115.407 5.88213 115.491 5.88213H115.675C115.743 5.88213 115.801 5.90156 115.846 5.94041C115.9 5.97279 115.923 6.01811 115.915 6.07639C115.907 6.16705 115.846 6.28036 115.732 6.41634C115.625 6.54585 115.468 6.67536 115.262 6.80487C115.064 6.93437 114.819 7.04121 114.529 7.12539C114.239 7.20957 113.914 7.25166 113.555 7.25166ZM111.745 4.32805H115.388V4.2892C115.388 3.96544 115.316 3.67404 115.171 3.41503C115.025 3.15602 114.815 2.95205 114.54 2.80312C114.266 2.64771 113.937 2.57 113.555 2.57C113.173 2.57 112.845 2.64771 112.57 2.80312C112.303 2.95205 112.097 3.15602 111.952 3.41503C111.814 3.67404 111.745 3.96544 111.745 4.2892V4.32805Z" fill="white"/>
<path d="M118.538 7.1545C118.462 7.1545 118.401 7.13506 118.355 7.09621C118.309 7.05736 118.286 7.00556 118.286 6.94081V2.31742C118.286 2.25267 118.309 2.20087 118.355 2.16202C118.401 2.12317 118.462 2.10374 118.538 2.10374H118.733C118.809 2.10374 118.87 2.12317 118.916 2.16202C118.962 2.20087 118.985 2.25267 118.985 2.31742V4.28916H122.559V2.31742C122.559 2.25267 122.582 2.20087 122.628 2.16202C122.674 2.12317 122.735 2.10374 122.811 2.10374H123.006C123.082 2.10374 123.143 2.12317 123.189 2.16202C123.235 2.20087 123.258 2.25267 123.258 2.31742V6.94081C123.258 7.00556 123.235 7.05736 123.189 7.09621C123.143 7.13506 123.082 7.1545 123.006 7.1545H122.811C122.735 7.1545 122.674 7.13506 122.628 7.09621C122.582 7.05736 122.559 7.00556 122.559 6.94081V4.85252H118.985V6.94081C118.985 7.00556 118.962 7.05736 118.916 7.09621C118.87 7.13506 118.809 7.1545 118.733 7.1545H118.538Z" fill="white"/>
<path d="M126.027 7.1545C125.966 7.1545 125.913 7.13506 125.867 7.09621C125.821 7.05736 125.798 7.01203 125.798 6.96023V2.31742C125.798 2.25267 125.821 2.20087 125.867 2.16202C125.913 2.12317 125.974 2.10374 126.05 2.10374H126.245C126.321 2.10374 126.382 2.12317 126.428 2.16202C126.474 2.20087 126.497 2.25267 126.497 2.31742V6.67856V6.38587L130.025 2.24943C130.063 2.21058 130.101 2.17821 130.14 2.15231C130.185 2.11993 130.247 2.10374 130.323 2.10374H130.541C130.602 2.10374 130.655 2.12317 130.701 2.16202C130.747 2.1944 130.77 2.23649 130.77 2.28829V6.94081C130.77 7.00556 130.747 7.05736 130.701 7.09621C130.655 7.13506 130.594 7.1545 130.518 7.1545H130.323C130.247 7.1545 130.185 7.13506 130.14 7.09621C130.094 7.05736 130.071 7.00556 130.071 6.94081L130.195 2.95185L130.311 2.8225L126.543 7.0088C126.512 7.04118 126.474 7.07355 126.428 7.10593C126.382 7.1383 126.321 7.1545 126.245 7.1545H126.027Z" fill="white"/>
<path d="M135.519 7.25166C134.778 7.25166 134.19 7.04769 133.755 6.63974C133.32 6.22532 133.072 5.68464 133.01 5.01768C133.003 4.92055 132.999 4.79104 132.999 4.62916C132.999 4.46727 133.003 4.33776 133.01 4.24063C133.049 3.80031 133.171 3.4118 133.377 3.07508C133.583 2.73836 133.866 2.47611 134.225 2.28833C134.591 2.10054 135.023 2.00665 135.519 2.00665C136.054 2.00665 136.508 2.10701 136.882 2.30775C137.257 2.50848 137.543 2.79664 137.741 3.1722C137.948 3.54777 138.051 3.99458 138.051 4.5126V4.6583C138.051 4.72305 138.024 4.77485 137.971 4.8137C137.925 4.85255 137.864 4.87198 137.787 4.87198H133.709C133.709 4.87198 133.709 4.88493 133.709 4.91083C133.709 4.93673 133.709 4.95616 133.709 4.96911C133.724 5.2605 133.805 5.53894 133.95 5.80443C134.095 6.06344 134.301 6.27713 134.568 6.44549C134.836 6.60737 135.153 6.68831 135.519 6.68831C135.848 6.68831 136.119 6.64622 136.332 6.56204C136.554 6.47786 136.73 6.38721 136.859 6.29008C136.989 6.18647 137.073 6.10877 137.111 6.05696C137.18 5.97278 137.234 5.92422 137.272 5.91127C137.31 5.89184 137.371 5.88213 137.455 5.88213H137.638C137.707 5.88213 137.764 5.90156 137.81 5.94041C137.864 5.97279 137.887 6.01811 137.879 6.07639C137.871 6.16705 137.81 6.28036 137.696 6.41634C137.589 6.54585 137.432 6.67536 137.226 6.80487C137.027 6.93437 136.783 7.04121 136.493 7.12539C136.203 7.20957 135.878 7.25166 135.519 7.25166ZM133.709 4.32805H137.352V4.2892C137.352 3.96544 137.279 3.67404 137.134 3.41503C136.989 3.15602 136.779 2.95205 136.504 2.80312C136.229 2.64771 135.901 2.57 135.519 2.57C135.137 2.57 134.809 2.64771 134.534 2.80312C134.267 2.95205 134.06 3.15602 133.915 3.41503C133.778 3.67404 133.709 3.96544 133.709 4.2892V4.32805Z" fill="white"/>
<path d="M140.501 7.1545C140.425 7.1545 140.364 7.13506 140.318 7.09621C140.272 7.05736 140.249 7.00556 140.249 6.94081V2.28829C140.249 2.23649 140.272 2.1944 140.318 2.16202C140.372 2.12317 140.425 2.10374 140.479 2.10374H140.742C140.857 2.10374 140.944 2.1523 141.005 2.24943L143.125 5.64898L145.244 2.24943C145.305 2.1523 145.393 2.10374 145.507 2.10374H145.771C145.832 2.10374 145.885 2.12317 145.931 2.16202C145.977 2.1944 146 2.23649 146 2.28829V6.94081C146 7.00556 145.977 7.05736 145.931 7.09621C145.885 7.13506 145.824 7.1545 145.748 7.1545H145.553C145.477 7.1545 145.416 7.13506 145.37 7.09621C145.324 7.05736 145.301 7.00556 145.301 6.94081L145.423 3.10742L145.633 2.76422L143.629 6.05693C143.591 6.12168 143.545 6.18319 143.491 6.24147C143.438 6.29975 143.354 6.32889 143.239 6.32889H143.01C142.896 6.32889 142.812 6.29975 142.758 6.24147C142.705 6.18319 142.659 6.12168 142.621 6.05693L140.673 2.94877L140.843 3.21993L140.948 6.94081C140.948 7.00556 140.925 7.05736 140.879 7.09621C140.834 7.13506 140.773 7.1545 140.696 7.1545H140.501Z" fill="white"/>
</svg>
