<svg width="147" height="16" viewBox="0 0 147 16" fill="none" xmlns="http://www.w3.org/2000/svg">
<path d="M8.00238 15.9999C6.38074 15.9999 4.96354 15.7142 3.75112 15.1427C2.55373 14.5713 1.62933 13.7801 0.97756 12.7691C0.325793 11.7434 0 10.5641 0 9.23069C0 7.89731 0.242555 6.66656 0.72749 5.53842C1.21242 4.41028 1.89444 3.43581 2.77355 2.61536C3.65266 1.78021 4.69843 1.13558 5.91085 0.681313C7.13849 0.227048 8.49501 0 9.98024 0C11.4504 0 12.7538 0.249027 13.8905 0.747247C15.0272 1.24547 15.8759 1.9633 16.4367 2.90107L13.1857 5.40655C12.822 4.82042 12.3446 4.37359 11.7535 4.0659C11.1776 3.75821 10.4879 3.60437 9.68469 3.60437C8.91174 3.60437 8.20698 3.73623 7.57043 3.99997C6.94909 4.2637 6.41099 4.63732 5.95631 5.12084C5.50163 5.60435 5.1531 6.17577 4.91055 6.83511C4.66799 7.47974 4.5468 8.18303 4.5468 8.94498C4.5468 9.63357 4.69843 10.2417 5.00149 10.7691C5.31976 11.2819 5.76692 11.6849 6.34279 11.9779C6.93388 12.2564 7.63112 12.3955 8.43433 12.3955C9.1466 12.3955 9.82862 12.2564 10.4804 11.9779C11.1472 11.6995 11.761 11.2454 12.3218 10.6153L14.9817 13.1428C14.0876 14.183 13.0569 14.923 11.8899 15.3625C10.7229 15.7874 9.4271 15.9999 8.00238 15.9999Z" fill="white"/>
<path d="M25.3533 16C23.7164 16 22.3069 15.7143 21.1247 15.1429C19.9426 14.5567 19.0332 13.7583 18.3966 12.7473C17.7601 11.7363 17.4418 10.5642 17.4418 9.23082C17.4418 7.8829 17.6844 6.65214 18.1693 5.53854C18.6544 4.4104 19.3364 3.43594 20.2154 2.61549C21.0945 1.78033 22.1402 1.13571 23.3527 0.68144C24.5803 0.227175 25.9216 0.00012708 27.3766 0.00012708C29.0134 0.00012708 30.423 0.293109 31.6051 0.879242C32.7873 1.45067 33.6967 2.24187 34.3332 3.25285C34.9698 4.26383 35.288 5.43592 35.288 6.7693C35.288 8.11722 35.0457 9.35542 34.5605 10.4836C34.0756 11.5972 33.3936 12.5715 32.5145 13.4066C31.6356 14.2271 30.5821 14.8644 29.3545 15.3187C28.142 15.773 26.8082 16 25.3533 16ZM25.7397 12.3956C26.5279 12.3956 27.2251 12.2565 27.8313 11.9781C28.4528 11.6996 28.9757 11.3114 29.3999 10.8132C29.8396 10.3005 30.1729 9.7216 30.4002 9.07698C30.6276 8.43235 30.7412 7.75104 30.7412 7.03304C30.7412 6.34445 30.5898 5.74361 30.2865 5.23085C29.9987 4.71809 29.5743 4.32249 29.0134 4.04405C28.4678 3.75107 27.7935 3.60449 26.9901 3.60449C26.2172 3.60449 25.5201 3.74363 24.8986 4.02207C24.2772 4.30051 23.7468 4.69612 23.3072 5.20888C22.8829 5.7071 22.557 6.27852 22.3296 6.92315C22.1023 7.56777 21.9886 8.24909 21.9886 8.96709C21.9886 9.64113 22.1327 10.2418 22.4206 10.7693C22.7238 11.282 23.1481 11.6851 23.6937 11.9781C24.2545 12.2565 24.9365 12.3956 25.7397 12.3956Z" fill="white"/>
<path d="M45.6914 16C44.0546 16 42.6451 15.7143 41.4629 15.1429C40.2807 14.5567 39.3713 13.7583 38.7348 12.7473C38.0982 11.7363 37.78 10.5642 37.78 9.23082C37.78 7.8829 38.0223 6.65214 38.5075 5.53854C38.9924 4.4104 39.6744 3.43594 40.5535 2.61549C41.4324 1.78033 42.4782 1.13571 43.6908 0.68144C44.9184 0.227175 46.2598 0.00012708 47.7147 0.00012708C49.3516 0.00012708 50.7611 0.293109 51.9433 0.879242C53.1254 1.45067 54.0348 2.24187 54.6713 3.25285C55.3079 4.26383 55.6262 5.43592 55.6262 6.7693C55.6262 8.11722 55.3836 9.35542 54.8987 10.4836C54.4136 11.5972 53.7315 12.5715 52.8526 13.4066C51.9735 14.2271 50.9202 14.8644 49.6926 15.3187C48.48 15.773 47.1464 16 45.6914 16ZM46.0779 12.3956C46.8659 12.3956 47.5631 12.2565 48.1694 11.9781C48.7908 11.6996 49.3136 11.3114 49.7381 10.8132C50.1775 10.3005 50.511 9.7216 50.7383 9.07698C50.9657 8.43235 51.0794 7.75104 51.0794 7.03304C51.0794 6.34445 50.9277 5.74361 50.6247 5.23085C50.3367 4.71809 49.9122 4.32249 49.3516 4.04405C48.806 3.75107 48.1315 3.60449 47.3283 3.60449C46.5553 3.60449 45.8581 3.74363 45.2367 4.02207C44.6152 4.30051 44.0848 4.69612 43.6453 5.20888C43.2209 5.7071 42.8951 6.27852 42.6678 6.92315C42.4404 7.56777 42.3268 8.24909 42.3268 8.96709C42.3268 9.64113 42.4707 10.2418 42.7587 10.7693C43.0618 11.282 43.4862 11.6851 44.0318 11.9781C44.5925 12.2565 45.2745 12.3956 46.0779 12.3956Z" fill="white"/>
<path d="M62.7427 11.328L63.8747 6.03896L71.1916 0.00012708H76.6114L68.1213 7.08612L65.0508 9.5424L62.7427 11.328ZM57.3749 15.2156L60.6313 0.00012708H65.1671L61.9107 15.2156H57.3749ZM68.5632 15.2156L65.0508 9.5424L68.1213 7.08612L73.7037 15.2156H68.5632Z" fill="white"/>
<path d="M80.7697 15.3846L83.2477 3.45065H78.3598L79.0873 0.00012708H93.3416L92.6141 3.45065H87.749L85.271 15.3846H80.7697Z" fill="white"/>
<path d="M101.198 16C99.561 16 98.1514 15.7143 96.9693 15.1429C95.7871 14.5567 94.8777 13.7583 94.2412 12.7473C93.6046 11.7363 93.2864 10.5642 93.2864 9.23082C93.2864 7.8829 93.5289 6.65214 94.0138 5.53854C94.499 4.4104 95.181 3.43594 96.0599 2.61549C96.939 1.78033 97.9848 1.13571 99.1972 0.68144C100.425 0.227175 101.766 0.00012708 103.221 0.00012708C104.858 0.00012708 106.267 0.293109 107.45 0.879242C108.632 1.45067 109.541 2.24187 110.178 3.25285C110.814 4.26383 111.133 5.43592 111.133 6.7693C111.133 8.11722 110.889 9.35542 110.405 10.4836C109.921 11.5972 109.239 12.5715 108.359 13.4066C107.479 14.2271 106.427 14.8644 105.199 15.3187C103.987 15.773 102.653 16 101.198 16ZM101.584 12.3956C102.372 12.3956 103.07 12.2565 103.676 11.9781C104.297 11.6996 104.82 11.3114 105.244 10.8132C105.684 10.3005 106.017 9.7216 106.245 9.07698C106.472 8.43235 106.586 7.75104 106.586 7.03304C106.586 6.34445 106.434 5.74361 106.131 5.23085C105.843 4.71809 105.419 4.32249 104.858 4.04405C104.312 3.75107 103.638 3.60449 102.835 3.60449C102.062 3.60449 101.365 3.74363 100.743 4.02207C100.122 4.30051 99.5914 4.69612 99.1517 5.20888C98.7275 5.7071 98.4015 6.27852 98.1742 6.92315C97.9468 7.56777 97.8332 8.24909 97.8332 8.96709C97.8332 9.64113 97.9773 10.2418 98.2651 10.7693C98.5684 11.282 98.9926 11.6851 99.5382 11.9781C100.099 12.2565 100.781 12.3956 101.584 12.3956Z" fill="white"/>
<path d="M120.275 15.6923C118.684 15.6923 117.351 15.3993 116.274 14.8132C115.214 14.2125 114.464 13.3774 114.023 12.3077C113.584 11.2235 113.509 9.96336 113.796 8.52753L115.569 0.00012708H120.07L118.32 8.4616C118.199 9.07698 118.161 9.61171 118.206 10.066C118.252 10.5202 118.381 10.9011 118.593 11.2088C118.82 11.5165 119.116 11.7436 119.479 11.8901C119.859 12.022 120.307 12.0879 120.821 12.0879C121.443 12.0879 121.98 11.9708 122.435 11.7363C122.905 11.4873 123.292 11.0989 123.594 10.5715C123.913 10.0293 124.156 9.326 124.322 8.4616L126.072 0.00012708H130.505L128.709 8.72533C128.241 11.011 127.3 12.7473 125.89 13.9341C124.481 15.1062 122.61 15.6923 120.275 15.6923Z" fill="white"/>
<path d="M147 4.84726C147 6.23845 146.608 7.44115 145.825 8.45551C145.041 9.45533 143.945 10.1872 142.532 10.6509L145.272 15.2156H140.505L138.109 11.1727H135.806L134.954 15.2156H130.394L133.618 0.00012708H140.505C142.562 0.00012708 144.16 0.427512 145.295 1.28262C146.432 2.13756 147 3.32571 147 4.84726ZM142.394 5.26027C142.394 4.63712 142.172 4.17355 141.726 3.86924C141.28 3.5504 140.659 3.39097 139.86 3.39097H137.464L136.497 7.8469H139.214C140.229 7.8469 141.012 7.62238 141.565 7.17302C142.117 6.72383 142.394 6.0863 142.394 5.26027Z" fill="white"/>
</svg>
